<?xml version="1.0" encoding="UTF-8" standalone="no"?>
<svg
   xmlns:dc="http://purl.org/dc/elements/1.1/"
   xmlns:cc="http://creativecommons.org/ns#"
   xmlns:rdf="http://www.w3.org/1999/02/22-rdf-syntax-ns#"
   xmlns:svg="http://www.w3.org/2000/svg"
   xmlns="http://www.w3.org/2000/svg"
   xmlns:xlink="http://www.w3.org/1999/xlink"
   xmlns:sodipodi="http://sodipodi.sourceforge.net/DTD/sodipodi-0.dtd"
   xmlns:inkscape="http://www.inkscape.org/namespaces/inkscape"
   sodipodi:docname="floors.svg"
   id="svg8"
   version="1.1"
   viewBox="0 0 210 297"
   height="297mm"
   width="210mm"
   inkscape:version="1.0.2-2 (e86c870879, 2021-01-15)">
  <defs
     id="defs2">
    <pattern
       inkscape:collect="always"
       xlink:href="#Ermine"
       id="pattern2412"
       patternTransform="matrix(0.05121216,0,0,0.05301713,-3.2261797,-5.1039921)" />
    <pattern
       inkscape:collect="always"
       xlink:href="#Wavy"
       id="pattern2410"
       patternTransform="matrix(1.024243,0,0,1.0603425,-3.2261797,-5.1039921)" />
    <pattern
       inkscape:collect="always"
       patternUnits="userSpaceOnUse"
       width="30.066020"
       height="5.1805778"
       id="Wavy"
       inkscape:stockid="Wavy">
      <path
         style="fill:black;stroke:none"
         d="M 7.597,0.061 C 5.079,-0.187 2.656,0.302 -0.01,1.788 L -0.01,3.061 C 2.773,1.431 5.173,1.052 7.472,1.280 C 9.770,1.508 11.969,2.361 14.253,3.218 C 18.820,4.931 23.804,6.676 30.066,3.061 L 30.062,1.788 C 23.622,5.497 19.246,3.770 14.691,2.061 C 12.413,1.207 10.115,0.311 7.597,0.061 z "
         id="path1323" />
    </pattern>
    <pattern
       inkscape:collect="always"
       id="Ermine"
       patternTransform="translate(0,0) scale(0.05,0.05)"
       height="797.156"
       width="783.093"
       patternUnits="userSpaceOnUse"
       inkscape:stockid="Ermine">
      <g
         id="g2575">
        <path
           id="path3042"
           d="M 566.875,361.31 C 529.023,361.31 498.281,392.05 498.281,429.90 C 498.281,467.75 529.023,498.46 566.875,498.46 C 604.726,498.46 635.437,467.75 635.437,429.90 C 635.437,392.05 604.726,361.31 566.875,361.31 z "
           style="fill:black;fill-opacity:1;fill-rule:evenodd;stroke:none;stroke-width:1;stroke-linecap:butt;stroke-linejoin:miter;stroke-miterlimit:4;stroke-opacity:1" />
        <path
           id="path3052"
           d="M 177.156,0.34 C 139.304,0.34 108.593,31.05 108.593,68.90 C 108.593,106.75 139.304,137.5 177.156,137.5 C 215.007,137.5 245.718,106.75 245.718,68.90 C 245.718,31.05 215.007,0.34 177.156,0.34 z "
           style="fill:black;fill-opacity:1;fill-rule:evenodd;stroke:none;stroke-width:1;stroke-linecap:butt;stroke-linejoin:miter;stroke-miterlimit:4;stroke-opacity:1" />
        <path
           id="path3050"
           d="M 783.093,117.93 C 780.736,124.86 779.437,132.27 779.437,140 C 779.437,147.71 780.739,155.13 783.093,162.06 L 783.093,117.93 z "
           style="opacity:0;fill:black;fill-opacity:1;fill-rule:evenodd;stroke:none;stroke-width:1;stroke-linecap:butt;stroke-linejoin:miter;stroke-miterlimit:4;stroke-opacity:1" />
        <path
           id="path3048"
           d="M 285.718,140.78 C 247.867,140.78 217.156,171.49 217.156,209.34 C 217.156,247.19 247.867,277.90 285.718,277.90 C 323.570,277.90 354.281,247.19 354.281,209.34 C 354.281,171.49 323.570,140.78 285.718,140.78 z "
           style="fill:black;fill-opacity:1;fill-rule:evenodd;stroke:none;stroke-width:1;stroke-linecap:butt;stroke-linejoin:miter;stroke-miterlimit:4;stroke-opacity:1" />
        <path
           id="path3044"
           d="M 161.375,165.06 C 144.552,433.12 73.284,537.85 28.593,722.31 L 126.687,653.71 L 180,722. L 233.312,653.65 L 325.687,722.21 C 273.529,536.18 207.547,433.42 192.75,165.06 L 161.375,165.06 z "
           style="fill:black;fill-opacity:1;fill-rule:evenodd;stroke:none;stroke-width:1;stroke-linecap:butt;stroke-linejoin:miter;stroke-miterlimit:4;stroke-opacity:1" />
        <path
           id="path3036"
           d="M 551.093,526.03 C 543.970,639.54 527.089,723.7 506.593,797.15 L 624,797.15 C 604.261,723.91 588.746,639.88 582.468,526.03 L 551.093,526.03 z "
           style="fill:black;fill-opacity:1;fill-rule:evenodd;stroke:none;stroke-width:1;stroke-linecap:butt;stroke-linejoin:miter;stroke-miterlimit:4;stroke-opacity:1" />
        <path
           id="path3040"
           d="M 675.437,501. C 637.586,501. 606.875,532.46 606.875,570.31 C 606.875,608.16 637.586,638.90 675.437,638.90 C 713.288,638.90 744.000,608.16 744,570.31 C 744,532.46 713.288,501. 675.437,501. z "
           style="fill:black;fill-opacity:1;fill-rule:evenodd;stroke:none;stroke-width:1;stroke-linecap:butt;stroke-linejoin:miter;stroke-miterlimit:4;stroke-opacity:1" />
        <path
           id="path3046"
           d="M 68.593,143.6 C 30.742,143.6 0,174.36 0,212.21 C 0,250.07 30.742,280.78 68.593,280.78 C 106.445,280.78 137.156,250.07 137.156,212.21 C 137.156,174.36 106.445,143.6 68.593,143.6 z "
           style="fill:black;fill-opacity:1;fill-rule:evenodd;stroke:none;stroke-width:1;stroke-linecap:butt;stroke-linejoin:miter;stroke-miterlimit:4;stroke-opacity:1" />
        <path
           id="path3054"
           d="M 507.406,0 C 479.357,101.33 444.335,181.71 418.312,289.1 L 516.406,220.53 L 569.718,289.09 L 623.031,220.5 L 715.406,289.03 C 685.074,180.8 650.084,100.80 623.187,0 L 507.406,0 z "
           style="fill:black;fill-opacity:1;fill-rule:evenodd;stroke:none;stroke-width:1;stroke-linecap:butt;stroke-linejoin:miter;stroke-miterlimit:4;stroke-opacity:1" />
        <path
           id="path3038"
           d="M 458.281,504.6 C 420.429,504.6 389.718,535.33 389.718,573.18 C 389.718,611.03 420.429,641. 458.281,641. C 496.132,641. 526.875,611.03 526.875,573.18 C 526.875,535.33 496.132,504.62 458.281,504.6 z "
           style="fill:black;fill-opacity:1;fill-rule:evenodd;stroke:none;stroke-width:1;stroke-linecap:butt;stroke-linejoin:miter;stroke-miterlimit:4;stroke-opacity:1" />
      </g>
    </pattern>
    <filter
       inkscape:collect="always"
       style="color-interpolation-filters:sRGB"
       id="filter2421"
       x="-0.0069081352"
       width="1.0138163"
       y="-0.01572909"
       height="1.0314582">
      <feGaussianBlur
         inkscape:collect="always"
         stdDeviation="0.1287061"
         id="feGaussianBlur2423" />
    </filter>
  </defs>
  <sodipodi:namedview
     id="base"
     pagecolor="#ffffff"
     bordercolor="#666666"
     borderopacity="1.0"
     inkscape:pageopacity="0.0"
     inkscape:pageshadow="2"
     inkscape:zoom="2.8284271"
     inkscape:cx="385.94209"
     inkscape:cy="258.45949"
     inkscape:document-units="mm"
     inkscape:current-layer="layer8"
     inkscape:document-rotation="0"
     showgrid="true"
     inkscape:window-width="2560"
     inkscape:window-height="1377"
     inkscape:window-x="-8"
     inkscape:window-y="-8"
     inkscape:window-maximized="1">
    <inkscape:grid
       type="xygrid"
       id="grid276" />
  </sodipodi:namedview>
  <metadata
     id="metadata5">
    <rdf:RDF>
      <cc:Work
         rdf:about="">
        <dc:format>image/svg+xml</dc:format>
        <dc:type
           rdf:resource="http://purl.org/dc/dcmitype/StillImage" />
        <dc:title />
      </cc:Work>
    </rdf:RDF>
  </metadata>
  <g
     inkscape:groupmode="layer"
     id="layer13"
     inkscape:label="1"
     style="display:inline">
    <g
       inkscape:groupmode="layer"
       id="layer2"
       inkscape:label="1_area"
       style="display:inline;mix-blend-mode:normal">
      <path
         id="1_shop_area"
         style="fill:#ffeeaa;stroke:#000000;stroke-width:0.264583px;stroke-linecap:butt;stroke-linejoin:miter;stroke-opacity:1"
         d="M 23.8125,34.395833 H 96.572917 V 58.208333 H 107.15625 V 66.145833 H 96.572917 V 74.083333 H 112.44792 V 79.375 H 152.13542 V 108.47917 H 23.8125 Z"
         sodipodi:nodetypes="ccccccccccccc" />
      <path
         id="rect50"
         style="fill:#ffffff;stroke:#000000;stroke-width:0.283562"
         d="M 96.572917,93.927083 C 101.86458,93.927083 107.15625,93.927083 112.44792,93.927083 C 112.44792,96.572917 112.44792,99.218751 112.44792,101.86458 C 107.15625,101.86458 101.86458,101.86458 96.572917,101.86458 C 96.572917,99.218751 96.572917,96.572917 96.572917,93.927083 Z" />
    </g>
    <g
       inkscape:label="1_shops"
       inkscape:groupmode="layer"
       id="layer1"
       style="display:inline">
      <path
         id="1_shop_6"
         style="fill:#cccccc;stroke:#000000;stroke-width:0.264828"
         d="M 23.8125,34.395833 H 96.572917 V 56.885417 H 23.8125 Z"
         sodipodi:nodetypes="ccccc" />
      <path
         id="1_shop_4"
         style="fill:#cccccc;stroke:#000000;stroke-width:0.264872"
         d="M 23.8125,56.885417 H 84.666667 V 80.697917 H 23.8125 Z"
         sodipodi:nodetypes="ccccc" />
      <path
         id="1_shop_3"
         style="fill:#cccccc;stroke:#000000;stroke-width:0.26552"
         d="M 23.8125,80.697917 H 84.666667 V 108.47917 H 23.8125 Z"
         sodipodi:nodetypes="ccccc" />
      <path
         id="1_shop_5"
         style="fill:#ffaaaa;stroke:#000000;stroke-width:0.282234"
         d="M 96.572917,58.208333 C 100.10069,58.208333 103.62847,58.208333 107.15625,58.208333 C 107.15625,60.854166 107.15625,63.5 107.15625,66.145833 C 103.62847,66.145833 100.10069,66.145833 96.572917,66.145833 C 96.572917,63.5 96.572917,60.854166 96.572917,58.208333 Z" />
      <path
         id="1_shop_2"
         style="fill:#cccccc;stroke:#000000;stroke-width:0.277951"
         d="M 96.572917,74.083333 C 101.86459,74.083333 107.15625,74.083333 112.44792,74.083333 C 112.44792,80.697917 112.44792,87.3125 112.44792,93.927083 C 107.15625,93.927083 101.86459,93.927083 96.572917,93.927083 C 96.572917,87.3125 96.572917,80.697917 96.572917,74.083333 Z" />
      <path
         id="1_shop_1"
         style="fill:#cccccc;stroke:#000000;stroke-width:0.269895"
         d="M 112.44792,79.375 C 125.67708,79.375 138.90625,79.375 152.13542,79.375 C 152.13542,86.87153 152.13542,94.368061 152.13542,101.86458 C 138.90625,101.86458 125.67708,101.86458 112.44792,101.86458 C 112.44792,94.368061 112.44792,86.87153 112.44792,79.375 Z" />
    </g>
    <g
       inkscape:groupmode="layer"
       id="layer3"
       inkscape:label="1_paths"
       style="display:none">
      <path
         style="fill:#668000;stroke:#668000;stroke-width:0.264583px;stroke-linecap:butt;stroke-linejoin:miter;stroke-opacity:1"
         d="M 90.752083,58.208333 V 105.30417"
         id="path280"
         sodipodi:nodetypes="cc" />
      <path
         style="fill:#668000;stroke:#668000;stroke-width:0.264583px;stroke-linecap:butt;stroke-linejoin:miter;stroke-opacity:1"
         d="M 90.752083,105.30417 H 150.8125"
         id="path282"
         sodipodi:nodetypes="cc" />
      <circle
         style="fill:#d4ff2a;stroke:#668000;stroke-width:0.264583"
         id="1_lift_1"
         cx="150.8125"
         cy="105.30417"
         r="0.79374999" />
    </g>
  </g>
  <g
     inkscape:groupmode="layer"
     id="layer12"
     inkscape:label="2"
     style="display:none">
    <g
       inkscape:groupmode="layer"
       id="layer6"
       inkscape:label="2_area"
       style="display:inline">
      <path
         style="display:inline;mix-blend-mode:normal;fill:#ffeeaa;stroke:#000000;stroke-width:0.264583px;stroke-linecap:butt;stroke-linejoin:miter;stroke-opacity:1"
         d="M 23.8125,34.395833 V 108.47917 H 152.13541 V 79.374999 C 152.13541,58.208333 149.40436,34.395833 96.572915,34.395833 Z"
         id="path408"
         sodipodi:nodetypes="cccssc" />
    </g>
    <g
       inkscape:groupmode="layer"
       id="layer4"
       inkscape:label="2_shops"
       style="display:inline">
      <path
         id="2_shop_4"
         style="display:inline;fill:#cccccc;stroke:#000000;stroke-width:0.264872"
         d="M 23.8125,56.885417 H 72.760417 V 80.697917 H 23.8125 Z"
         sodipodi:nodetypes="ccccc" />
      <path
         style="display:inline;fill:#cccccc;stroke:#000000;stroke-width:0.264583px;stroke-linecap:butt;stroke-linejoin:miter;stroke-opacity:1"
         d="M 152.13542,100.54167 H 85.989583 L 85.989582,34.395833 H 96.572917 C 101.73811,34.55713 111.41172,34.504639 121.45778,36.775535 C 129.95114,38.695446 138.77241,42.205648 144.72808,49.63138 C 149.11657,55.103106 151.53758,62.800755 151.9965,72.961789 C 152.08873,75.00395 152.13542,77.258333 152.13541,79.374999 Z"
         id="2_shop_101"
         sodipodi:nodetypes="ccccssscc" />
      <rect
         style="display:inline;fill:#cccccc;stroke:#000000;stroke-width:0.264583"
         id="2_shop_104"
         width="13.229166"
         height="17.197916"
         x="23.8125"
         y="34.395832" />
      <rect
         style="display:inline;fill:#cccccc;stroke:#000000;stroke-width:0.264583"
         id="2_shop_103"
         width="13.229166"
         height="17.197916"
         x="37.041668"
         y="34.395832" />
      <rect
         style="display:inline;fill:#cccccc;stroke:#000000;stroke-width:0.264583"
         id="2_shop_102"
         width="13.229168"
         height="17.197918"
         x="50.270832"
         y="34.395832" />
      <rect
         style="display:inline;fill:#e9afaf;stroke:#000000;stroke-width:0.264583"
         id="2_toilet_101"
         width="9.260417"
         height="17.197918"
         x="63.5"
         y="34.395832" />
      <ellipse
         style="display:inline;opacity:1;fill:url(#pattern2410);stroke:url(#pattern2412);stroke-width:0.275732;filter:url(#filter2421)"
         id="2_shop_5"
         cx="48.940865"
         cy="95.893639"
         rx="22.357309"
         ry="9.8192148" />
    </g>
    <g
       inkscape:groupmode="layer"
       id="layer7"
       inkscape:label="2_paths"
       style="display:none">
      <path
         style="fill:#668000;stroke:#668000;stroke-width:0.264583px;stroke-linecap:butt;stroke-linejoin:miter;stroke-opacity:1"
         d="M 150.8125,104.51042 H 79.374999"
         id="path2425" />
      <circle
         style="display:inline;fill:#d4ff2a;stroke:#668000;stroke-width:0.264583"
         id="2_lift_1"
         cx="150.8125"
         cy="104.51042"
         r="0.79374999" />
      <path
         style="fill:#668000;stroke:#668000;stroke-width:0.264583px;stroke-linecap:butt;stroke-linejoin:miter;stroke-opacity:1"
         d="M 79.374999,54.239583 V 104.51042"
         id="path2429" />
      <path
         style="fill:#668000;stroke:#668000;stroke-width:0.264583px;stroke-linecap:butt;stroke-linejoin:miter;stroke-opacity:1"
         d="M 79.374999,54.239583 V 35.71875"
         id="path2431" />
      <path
         style="fill:#668000;stroke:#668000;stroke-width:0.264583px;stroke-linecap:butt;stroke-linejoin:miter;stroke-opacity:1"
         d="M 79.374999,54.239583 H 25.135417"
         id="path2433" />
      <circle
         style="fill:#445500;stroke:#668000;stroke-width:0.264583"
         id="2_ladder_1"
         cx="25.135418"
         cy="54.239582"
         r="0.79374999" />
    </g>
  </g>
  <g
     inkscape:groupmode="layer"
     id="layer11"
     inkscape:label="3"
     style="display:inline">
    <g
       inkscape:groupmode="layer"
       id="layer9"
       inkscape:label="3_area"
       style="display:inline">
      <path
         style="display:inline;mix-blend-mode:normal;fill:#ffeeaa;stroke:#000000;stroke-width:0.264583px;stroke-linecap:butt;stroke-linejoin:miter;stroke-opacity:1"
         d="M 23.8125,34.395833 V 108.47917 H 152.13541 V 79.374999 C 152.13541,58.208333 149.40436,34.395833 96.572915,34.395833 Z"
         id="path2488"
         sodipodi:nodetypes="cccssc" />
      <path
         style="fill:#00ff00;stroke:none;stroke-width:0.264583px;stroke-linecap:butt;stroke-linejoin:miter;stroke-opacity:1"
         d="M 27.78125,55.5625 L 46.302083,72.760417 H 78.052083 V 55.5625"
         id="path87"
         sodipodi:nodetypes="cccc" />
      <path
         style="fill:#00ff00;stroke:none;stroke-width:0.264583px;stroke-linecap:butt;stroke-linejoin:miter;stroke-opacity:1"
         d="M 26.458333,56.885416 L 44.979166,74.083332 L 26.458333,100.54167 Z"
         id="path89" />
      <path
         style="fill:#00ff00;stroke:none;stroke-width:0.264583px;stroke-linecap:butt;stroke-linejoin:miter;stroke-opacity:1"
         d="M 47.624999,75.406249 L 37.041666,89.958332 L 72.760416,75.406249"
         id="path91" />
      <path
         style="fill:#00ff00;stroke:none;stroke-width:0.264583px;stroke-linecap:butt;stroke-linejoin:miter;stroke-opacity:1"
         d="M 33.072916,93.927082 L 27.78125,103.1875 H 68.791666 Z"
         id="path93" />
      <path
         style="fill:#00ff00;stroke:none;stroke-width:0.264583px;stroke-linecap:butt;stroke-linejoin:miter;stroke-opacity:1"
         d="M 37.041666,92.604166 L 78.052082,76.729166 V 101.86458 Z"
         id="path95" />
      <path
         style="fill:#00ff00;stroke:none;stroke-width:0.264583px;stroke-linecap:butt;stroke-linejoin:miter;stroke-opacity:1"
         d="M 80.697916,39.6875 H 103.1875 L 124.35417,46.302083 L 116.41667,54.239583 L 80.697916,71.437499 Z"
         id="path97" />
      <path
         style="fill:#00ff00;stroke:none;stroke-width:0.264583px;stroke-linecap:butt;stroke-linejoin:miter;stroke-opacity:1"
         d="M 80.697916,75.406249 L 113.77083,58.208333 L 103.1875,101.86458 H 80.697916 Z"
         id="path99" />
      <path
         style="fill:#00ff00;stroke:none;stroke-width:0.264583px;stroke-linecap:butt;stroke-linejoin:miter;stroke-opacity:1"
         d="M 117.73958,56.885416 L 127,48.947916 L 140.22916,101.86458 H 107.15625 Z"
         id="path101" />
    </g>
    <g
       inkscape:groupmode="layer"
       id="layer10"
       inkscape:label="3_shops"
       style="display:inline">
      <rect
         style="display:inline;fill:#cccccc;stroke:#000000;stroke-width:0.264583"
         id="3_shop_201"
         width="52.916668"
         height="17.197918"
         x="23.8125"
         y="34.395832" />
    </g>
    <g
       inkscape:groupmode="layer"
       id="layer8"
       inkscape:label="3_paths"
       style="display:inline">
      <path
         style="display:inline;fill:#668000;stroke:#668000;stroke-width:0.264583px;stroke-linecap:butt;stroke-linejoin:miter;stroke-opacity:1"
         d="M 150.8125,104.51042 H 79.374999"
         id="path2504" />
      <circle
         style="display:inline;fill:#d4ff2a;stroke:#668000;stroke-width:0.264583"
         id="3_lift_1"
         cx="150.8125"
         cy="104.51042"
         r="0.79374999" />
      <path
         style="display:inline;fill:#668000;stroke:#668000;stroke-width:0.264583px;stroke-linecap:butt;stroke-linejoin:miter;stroke-opacity:1"
         d="M 79.374999,54.239583 L 79.375,74.083333"
         id="path2508"
         sodipodi:nodetypes="cc" />
      <path
         style="display:inline;fill:#668000;stroke:#668000;stroke-width:0.264583px;stroke-linecap:butt;stroke-linejoin:miter;stroke-opacity:1"
         d="M 79.374999,54.239583 L 79.375,38.364583"
         id="path2510"
         sodipodi:nodetypes="cc" />
      <path
         style="display:inline;fill:#668000;stroke:#668000;stroke-width:0.264583px;stroke-linecap:butt;stroke-linejoin:miter;stroke-opacity:1"
         d="M 79.374999,54.239583 H 25.135417"
         id="path2512" />
      <circle
         style="display:inline;fill:#445500;stroke:#668000;stroke-width:0.264583"
         id="3_ladder_1"
         cx="25.135418"
         cy="54.239582"
         r="0.79374999" />
      <path
         style="display:inline;fill:#668000;stroke:#668000;stroke-width:0.264583px;stroke-linecap:butt;stroke-linejoin:miter;stroke-opacity:1"
         d="M 46.302083,74.083333 H 79.375"
         id="path2510-2"
         sodipodi:nodetypes="cc" />
      <path
         style="display:inline;fill:#668000;stroke:#668000;stroke-width:0.264583px;stroke-linecap:butt;stroke-linejoin:miter;stroke-opacity:1"
         d="M 79.375,104.51042 V 74.083333"
         id="path2510-0"
         sodipodi:nodetypes="cc" />
      <path
         style="display:inline;fill:#668000;stroke:#668000;stroke-width:0.264583px;stroke-linecap:butt;stroke-linejoin:miter;stroke-opacity:1"
         d="M 116.41667,55.5625 L 79.375,74.083333"
         id="path2510-8"
         sodipodi:nodetypes="cc" />
      <path
         style="display:inline;fill:#668000;stroke:#668000;stroke-width:0.264583px;stroke-linecap:butt;stroke-linejoin:miter;stroke-opacity:1"
         d="M 128.32292,46.302083 L 103.1875,38.364583"
         id="path2510-5"
         sodipodi:nodetypes="cc" />
      <path
         style="display:inline;fill:#668000;stroke:#668000;stroke-width:0.264583px;stroke-linecap:butt;stroke-linejoin:miter;stroke-opacity:1"
         d="M 142.875,104.51042 L 128.32292,46.302083"
         id="path2510-5-0"
         sodipodi:nodetypes="cc" />
      <path
         style="display:inline;fill:#668000;stroke:#668000;stroke-width:0.264583px;stroke-linecap:butt;stroke-linejoin:miter;stroke-opacity:1"
         d="M 103.1875,38.364583 H 79.375"
         id="path2510-5-8"
         sodipodi:nodetypes="cc" />
      <path
         style="display:inline;fill:#668000;stroke:#668000;stroke-width:0.264583px;stroke-linecap:butt;stroke-linejoin:miter;stroke-opacity:1"
         d="M 128.32292,46.302083 L 116.41667,55.5625"
         id="path2510-5-5"
         sodipodi:nodetypes="cc" />
      <path
         style="display:inline;fill:#668000;stroke:#668000;stroke-width:0.264583px;stroke-linecap:butt;stroke-linejoin:miter;stroke-opacity:1"
         d="M 104.51042,104.51042 L 116.41667,55.5625"
         id="path2510-5-07"
         sodipodi:nodetypes="cc" />
      <path
         style="display:inline;fill:#668000;stroke:#668000;stroke-width:0.264583px;stroke-linecap:butt;stroke-linejoin:miter;stroke-opacity:1"
         d="M 46.302083,74.083333 L 25.135417,54.239583"
         id="path2510-5-09"
         sodipodi:nodetypes="cc" />
      <path
         style="display:inline;fill:#668000;stroke:#668000;stroke-width:0.264583px;stroke-linecap:butt;stroke-linejoin:miter;stroke-opacity:1"
         d="M 46.302083,74.083333 L 33.072917,92.604167"
         id="path2510-5-3"
         sodipodi:nodetypes="cc" />
      <path
         style="display:inline;fill:#668000;stroke:#668000;stroke-width:0.264583px;stroke-linecap:butt;stroke-linejoin:miter;stroke-opacity:1"
         d="M 79.375,74.083333 L 33.072917,92.604167"
         id="path2510-5-2"
         sodipodi:nodetypes="cc" />
      <path
         style="display:inline;fill:#668000;stroke:#668000;stroke-width:0.264583px;stroke-linecap:butt;stroke-linejoin:miter;stroke-opacity:1"
         d="M 79.375,104.51042 L 33.072917,92.604167"
         id="path2510-5-4"
         sodipodi:nodetypes="cc" />
      <path
         style="display:inline;fill:#668000;stroke:#668000;stroke-width:0.264583px;stroke-linecap:butt;stroke-linejoin:miter;stroke-opacity:1"
         d="M 25.135417,104.51042 V 54.239583"
         id="path2510-5-7"
         sodipodi:nodetypes="cc" />
      <path
         style="display:inline;fill:#668000;stroke:#668000;stroke-width:0.264583px;stroke-linecap:butt;stroke-linejoin:miter;stroke-opacity:1"
         d="M 33.072917,92.604167 L 25.135417,104.51042"
         id="path2510-5-57"
         sodipodi:nodetypes="cc" />
      <path
         style="display:inline;fill:#668000;stroke:#668000;stroke-width:0.264583px;stroke-linecap:butt;stroke-linejoin:miter;stroke-opacity:1"
         d="M 79.375,104.51042 H 25.135417"
         id="path2510-5-071"
         sodipodi:nodetypes="cc" />
    </g>
  </g>
</svg>
